<svg xmlns="http://www.w3.org/2000/svg" xmlns:xlink="http://www.w3.org/1999/xlink" width="1280" height="1248" overflow="hidden"><defs><clipPath id="clip0"><rect width="1280" height="1248" x="0" y="0"/></clipPath></defs><g clip-path="url(#clip0)"><rect width="1280" height="1248" x="0" y="0" fill="#FFF"/><rect width="1280" height="1248" x=".5" y=".5" fill="#05041C" stroke="#84CAE7" stroke-miterlimit="8" stroke-width="1.333"/><text fill="#FFF" font-family="Calibri,Calibri_MSFontService,sans-serif" font-size="32" font-weight="400" transform="translate(491.07 1041)">*</text><text fill="#FFF" font-family="Calibri,Calibri_MSFontService,sans-serif" font-size="32" font-weight="400" transform="translate(507.07 1041)">SigMF Recording Object</text><path fill="#FFF" fill-rule="evenodd" d="M506.604 1044.59 661.104 1044.59 815.604 1044.59 815.604 1046.59 661.104 1046.59 506.604 1046.59Z"/><text fill="#FFF" font-family="Calibri,Calibri_MSFontService,sans-serif" font-size="32" font-weight="400" transform="translate(263.604 1087)">1.</text><text fill="#FFF" font-family="Calibri,Calibri_MSFontService,sans-serif" font-size="32" font-weight="400" transform="translate(317.604 1087)">SigMF Metadata</text><text fill="#FFF" font-family="Calibri,Calibri_MSFontService,sans-serif" font-size="32" font-weight="400" transform="translate(263.604 1126)">2.</text><text fill="#FFF" font-family="Calibri,Calibri_MSFontService,sans-serif" font-size="32" font-weight="400" transform="translate(317.604 1126)">IQ Samples, or a pointer to ones in blob storage</text><text fill="#FFF" font-family="Calibri,Calibri_MSFontService,sans-serif" font-size="32" font-weight="400" transform="translate(263.604 1164)">3.</text><text fill="#FFF" font-family="Calibri,Calibri_MSFontService,sans-serif" font-size="32" font-weight="400" transform="translate(317.604 1164)">Sample Start/Count corresponding to those IQ samples</text><text fill="#FFF" font-family="Calibri,Calibri_MSFontService,sans-serif" font-size="32" font-weight="400" transform="translate(878.887 820)">IQ Samples +</text><text fill="#FFF" font-family="Calibri,Calibri_MSFontService,sans-serif" font-size="32" font-weight="400" transform="translate(878.887 858)">SigMF Annotations</text><text fill="#FFF" font-family="Calibri,Calibri_MSFontService,sans-serif" font-size="32" font-weight="400" transform="translate(881.03 304)">SigMF Annotations</text><text fill="#FFF" font-family="Calibri,Calibri_MSFontService,sans-serif" font-size="50" font-weight="700" transform="translate(374.223 84)">IQEngine Plugin Examples</text><text fill="#FFF" font-family="Calibri,Calibri_MSFontService,sans-serif" font-size="37" font-weight="400" transform="translate(267.337 132)">(one OpenAPI spec shared by</text><text fill="#FFF" font-family="Calibri,Calibri_MSFontService,sans-serif" font-size="37" font-weight="400" transform="translate(719.663 132)">all types of plugins)</text><path fill="#84CAE7" d="M416 289 461.007 289 461.007 297 416 297ZM457.007 281 481.007 293 457.007 305Z"/><path fill="#84CAE7" d="M416 466 461.007 466 461.007 474 416 474ZM457.007 458 481.007 470 457.007 482Z"/><path fill="#84CAE7" d="M416 822 461.007 822 461.007 830 416 830ZM457.007 814 481.007 826 457.007 838Z"/><path fill="#84CAE7" d="M416 644 461.007 644 461.007 652 416 652ZM457.007 636 481.007 648 457.007 660Z"/><path fill="#84CAE7" d="M756 822 843.565 822 843.565 830 756 830ZM839.565 814 863.565 826 839.565 838Z"/><path fill="#84CAE7" d="M756 466 843.565 466 843.565 474 756 474ZM839.565 458 863.565 470 839.565 482Z"/><path fill="#84CAE7" d="M771 289 843.464 289 843.464 297 771 297ZM839.464 281 863.464 293 839.464 305Z"/><path fill="#84CAE7" d="M771 644 843.464 644 843.464 652 771 652ZM839.464 636 863.464 648 839.464 660Z"/><text fill="#FFF" font-family="Calibri,Calibri_MSFontService,sans-serif" font-size="32" font-weight="400" transform="translate(884.712 635)">SigMF Annotations</text><text fill="#FFF" font-family="Calibri,Calibri_MSFontService,sans-serif" font-size="24" font-weight="400" transform="translate(884.712 666)">with links to file(s) containing</text><text fill="#FFF" font-family="Calibri,Calibri_MSFontService,sans-serif" font-size="24" font-weight="400" transform="translate(884.712 695)">bytes/imagery/audio</text><text fill="#FFF" font-family="Calibri,Calibri_MSFontService,sans-serif" font-size="32" font-weight="400" transform="translate(884.712 464)">SigMF Annotations</text><text fill="#FFF" font-family="Calibri,Calibri_MSFontService,sans-serif" font-size="24" font-weight="400" transform="translate(884.712 495)">with labels filled out</text><path fill="none" fill-rule="evenodd" stroke="#84CAE7" stroke-linecap="round" stroke-miterlimit="8" stroke-width="6" d="M416 293 416 825.834"/><path fill="none" fill-rule="evenodd" stroke="#84CAE7" stroke-linecap="round" stroke-miterlimit="8" stroke-width="6" d="M319 560 416.018 560"/><text fill="#FFF" font-family="Calibri,Calibri_MSFontService,sans-serif" font-size="32" font-weight="400" transform="translate(55.3565 494)">One or More SigMF</text><text fill="#FFF" font-family="Calibri,Calibri_MSFontService,sans-serif" font-size="32" font-weight="400" transform="translate(56.5298 532)">Recording Objects*</text><text fill="#FFF" font-family="Calibri,Calibri_MSFontService,sans-serif" font-size="32" font-weight="400" transform="translate(174.063 571)">+</text><text fill="#FFF" font-family="Calibri,Calibri_MSFontService,sans-serif" font-size="32" font-weight="400" transform="translate(91.0698 609)">Plugin Params</text><rect width="318" height="137" x="481" y="225" fill="#4CE091"/><text font-family="Calibri,Calibri_MSFontService,sans-serif" font-size="37" font-weight="400" transform="translate(524.9 306)">Signal Detector</text><rect width="318" height="137" x="481" y="402" fill="#4CE091"/><text font-family="Calibri,Calibri_MSFontService,sans-serif" font-size="37" font-weight="400" transform="translate(524.9 460)">Signal Detector</text><text font-family="Calibri,Calibri_MSFontService,sans-serif" font-size="37" font-weight="400" transform="translate(558.753 505)">+ Classifier</text><rect width="318" height="137" x="481" y="758" fill="#4CE091"/><text font-family="Calibri,Calibri_MSFontService,sans-serif" font-size="37" font-weight="400" transform="translate(547.25 839)">Generic DSP</text><rect width="318" height="137" x="481" y="580" fill="#4CE091"/><text font-family="Calibri,Calibri_MSFontService,sans-serif" font-size="37" font-weight="400" transform="translate(519.987 661)">Demod/Decode</text></g></svg>